<?xml version="1.0" encoding="UTF-8" standalone="no"?>
<svg
   xmlns:dc="http://purl.org/dc/elements/1.1/"
   xmlns:cc="http://creativecommons.org/ns#"
   xmlns:rdf="http://www.w3.org/1999/02/22-rdf-syntax-ns#"
   xmlns:svg="http://www.w3.org/2000/svg"
   xmlns="http://www.w3.org/2000/svg"
   viewBox="0 0 672.52667 278.612"
   height="278.612"
   width="672.52667"
   xml:space="preserve"
   id="svg2"
   version="1.1"><metadata
     id="metadata8"><rdf:RDF><cc:Work
         rdf:about=""><dc:format>image/svg+xml</dc:format><dc:type
           rdf:resource="http://purl.org/dc/dcmitype/StillImage" /></cc:Work></rdf:RDF></metadata><defs
     id="defs6"><clipPath
       id="clipPath20"
       clipPathUnits="userSpaceOnUse"><path
         id="path18"
         d="M 0,208.959 H 504.395 V 0 H 0 Z" /></clipPath></defs><g
     transform="matrix(1.3333333,0,0,-1.3333333,0,278.612)"
     id="g10"><path
       id="path12"
       style="fill:#c32032;fill-opacity:1;fill-rule:nonzero;stroke:none"
       d="M 0,0 H 504.395 V 208.959 H 0 Z" /><g
       id="g14"><g
         clip-path="url(#clipPath20)"
         id="g16"><g
           transform="translate(57.2778,63.2383)"
           id="g22"><path
             id="path24"
             style="fill:#ffffff;fill-opacity:1;fill-rule:nonzero;stroke:none"
             d="m 0,0 c 0,0 -0.41,-1.33 -0.92,-3.08 -0.51,-1.74 -2.05,-2.56 -2.05,-2.56 l -14.47,0.1 2.57,7.29 c 0,0 9.85,0.1 12.82,0.1 C 0.93,1.85 0,0 0,0" /></g><g
           transform="translate(170.5679,64.7783)"
           id="g26"><path
             id="path28"
             style="fill:#ffffff;fill-opacity:1;fill-rule:nonzero;stroke:none"
             d="m 0,0 h -13.48 l -2.61,-7.13 13.82,-0.12 c 0,0 1.59,0 2.27,1.7 0.68,1.7 1.24,3.63 1.24,3.63 C 1.24,-1.92 2.26,0 0,0 m 0,0 h -13.48 l -2.61,-7.13 13.82,-0.12 c 0,0 1.59,0 2.27,1.7 0.68,1.7 1.24,3.63 1.24,3.63 C 1.24,-1.92 2.26,0 0,0 m 0,0 h -13.48 l -2.61,-7.13 13.82,-0.12 c 0,0 1.59,0 2.27,1.7 0.68,1.7 1.24,3.63 1.24,3.63 C 1.24,-1.92 2.26,0 0,0 m 18.8,-4.3 -4.42,-12.57 15.98,-0.12 4.07,12.46 z m 42.74,-7.94 c -3.04,0 -11.66,-0.13 -11.66,-0.13 l -1.62,-4.53 11.96,-0.04 c 0,0 3.25,3.38 1.32,4.7 m 2.72,7.83 c -3.07,0.04 -11.6,0.04 -11.6,0.04 L 51.25,-8.19 63.3,-8.32 c 0,0 2.46,2.46 0.96,3.91 m 0,0 c -3.07,0.04 -11.6,0.04 -11.6,0.04 L 51.25,-8.19 63.3,-8.32 c 0,0 2.46,2.46 0.96,3.91 m -2.72,-7.83 c -3.04,0 -11.66,-0.13 -11.66,-0.13 l -1.62,-4.53 11.96,-0.04 c 0,0 3.25,3.38 1.32,4.7 M 18.8,-4.3 14.38,-16.87 30.36,-16.99 34.43,-4.53 Z M 0,0 h -13.48 l -2.61,-7.13 13.82,-0.12 c 0,0 1.59,0 2.27,1.7 0.68,1.7 1.24,3.63 1.24,3.63 C 1.24,-1.92 2.26,0 0,0 m 0,0 h -13.48 l -2.61,-7.13 13.82,-0.12 c 0,0 1.59,0 2.27,1.7 0.68,1.7 1.24,3.63 1.24,3.63 C 1.24,-1.92 2.26,0 0,0 m 18.8,-4.3 -4.42,-12.57 15.98,-0.12 4.07,12.46 z m 42.74,-7.94 c -3.04,0 -11.66,-0.13 -11.66,-0.13 l -1.62,-4.53 11.96,-0.04 c 0,0 3.25,3.38 1.32,4.7 m 2.72,7.83 c -3.07,0.04 -11.6,0.04 -11.6,0.04 L 51.25,-8.19 63.3,-8.32 c 0,0 2.46,2.46 0.96,3.91 m 18.09,0 -4.25,-12.6 15.7,-0.06 4.14,12.6 z m 0,0 -4.25,-12.6 15.7,-0.06 4.14,12.6 z m -18.09,0 c -3.07,0.04 -11.6,0.04 -11.6,0.04 L 51.25,-8.19 63.3,-8.32 c 0,0 2.46,2.46 0.96,3.91 m -2.72,-7.83 c -3.04,0 -11.66,-0.13 -11.66,-0.13 l -1.62,-4.53 11.96,-0.04 c 0,0 3.25,3.38 1.32,4.7 M 18.8,-4.3 14.38,-16.87 30.36,-16.99 34.43,-4.53 Z M 0,0 h -13.48 l -2.61,-7.13 13.82,-0.12 c 0,0 1.59,0 2.27,1.7 0.68,1.7 1.24,3.63 1.24,3.63 C 1.24,-1.92 2.26,0 0,0 m 0,0 h -13.48 l -2.61,-7.13 13.82,-0.12 c 0,0 1.59,0 2.27,1.7 0.68,1.7 1.24,3.63 1.24,3.63 C 1.24,-1.92 2.26,0 0,0 m 18.8,-4.3 -4.42,-12.57 15.98,-0.12 4.07,12.46 z m 42.74,-7.94 c -3.04,0 -11.66,-0.13 -11.66,-0.13 l -1.62,-4.53 11.96,-0.04 c 0,0 3.25,3.38 1.32,4.7 m 2.72,7.83 c -3.07,0.04 -11.6,0.04 -11.6,0.04 L 51.25,-8.19 63.3,-8.32 c 0,0 2.46,2.46 0.96,3.91 m 18.09,0 -4.25,-12.6 15.7,-0.06 4.14,12.6 z m 0,0 -4.25,-12.6 15.7,-0.06 4.14,12.6 z m -18.09,0 c -3.07,0.04 -11.6,0.04 -11.6,0.04 L 51.25,-8.19 63.3,-8.32 c 0,0 2.46,2.46 0.96,3.91 m -2.72,-7.83 c -3.04,0 -11.66,-0.13 -11.66,-0.13 l -1.62,-4.53 11.96,-0.04 c 0,0 3.25,3.38 1.32,4.7 M 18.8,-4.3 14.38,-16.87 30.36,-16.99 34.43,-4.53 Z M 0,0 h -13.48 l -2.61,-7.13 13.82,-0.12 c 0,0 1.59,0 2.27,1.7 0.68,1.7 1.24,3.63 1.24,3.63 C 1.24,-1.92 2.26,0 0,0 m 0,0 h -13.48 l -2.61,-7.13 13.82,-0.12 c 0,0 1.59,0 2.27,1.7 0.68,1.7 1.24,3.63 1.24,3.63 C 1.24,-1.92 2.26,0 0,0 m 18.8,-4.3 -4.42,-12.57 15.98,-0.12 4.07,12.46 z m 42.74,-7.94 c -3.04,0 -11.66,-0.13 -11.66,-0.13 l -1.62,-4.53 11.96,-0.04 c 0,0 3.25,3.38 1.32,4.7 m 2.72,7.83 c -3.07,0.04 -11.6,0.04 -11.6,0.04 L 51.25,-8.19 63.3,-8.32 c 0,0 2.46,2.46 0.96,3.91 m 18.09,0 -4.25,-12.6 15.7,-0.06 4.14,12.6 z m 0,0 -4.25,-12.6 15.7,-0.06 4.14,12.6 z m -18.09,0 c -3.07,0.04 -11.6,0.04 -11.6,0.04 L 51.25,-8.19 63.3,-8.32 c 0,0 2.46,2.46 0.96,3.91 m -2.72,-7.83 c -3.04,0 -11.66,-0.13 -11.66,-0.13 l -1.62,-4.53 11.96,-0.04 c 0,0 3.25,3.38 1.32,4.7 M 18.8,-4.3 14.38,-16.87 30.36,-16.99 34.43,-4.53 Z M 0,0 h -13.48 l -2.61,-7.13 13.82,-0.12 c 0,0 1.59,0 2.27,1.7 0.68,1.7 1.24,3.63 1.24,3.63 C 1.24,-1.92 2.26,0 0,0 m 0,0 h -13.48 l -2.61,-7.13 13.82,-0.12 c 0,0 1.59,0 2.27,1.7 0.68,1.7 1.24,3.63 1.24,3.63 C 1.24,-1.92 2.26,0 0,0 m 18.8,-4.3 -4.42,-12.57 15.98,-0.12 4.07,12.46 z m 42.74,-7.94 c -3.04,0 -11.66,-0.13 -11.66,-0.13 l -1.62,-4.53 11.96,-0.04 c 0,0 3.25,3.38 1.32,4.7 m 2.72,7.83 c -3.07,0.04 -11.6,0.04 -11.6,0.04 L 51.25,-8.19 63.3,-8.32 c 0,0 2.46,2.46 0.96,3.91 m 18.09,0 -4.25,-12.6 15.7,-0.06 4.14,12.6 z m 0,0 -4.25,-12.6 15.7,-0.06 4.14,12.6 z m -18.09,0 c -3.07,0.04 -11.6,0.04 -11.6,0.04 L 51.25,-8.19 63.3,-8.32 c 0,0 2.46,2.46 0.96,3.91 m -2.72,-7.83 c -3.04,0 -11.66,-0.13 -11.66,-0.13 l -1.62,-4.53 11.96,-0.04 c 0,0 3.25,3.38 1.32,4.7 M 18.8,-4.3 14.38,-16.87 30.36,-16.99 34.43,-4.53 Z M 0,0 h -13.48 l -2.61,-7.13 13.82,-0.12 c 0,0 1.59,0 2.27,1.7 0.68,1.7 1.24,3.63 1.24,3.63 C 1.24,-1.92 2.26,0 0,0 m 0,0 h -13.48 l -2.61,-7.13 13.82,-0.12 c 0,0 1.59,0 2.27,1.7 0.68,1.7 1.24,3.63 1.24,3.63 C 1.24,-1.92 2.26,0 0,0 m 18.8,-4.3 -4.42,-12.57 15.98,-0.12 4.07,12.46 z m 42.74,-7.94 c -3.04,0 -11.66,-0.13 -11.66,-0.13 l -1.62,-4.53 11.96,-0.04 c 0,0 3.25,3.38 1.32,4.7 m 2.72,7.83 c -3.07,0.04 -11.6,0.04 -11.6,0.04 L 51.25,-8.19 63.3,-8.32 c 0,0 2.46,2.46 0.96,3.91 m 18.09,0 -4.25,-12.6 15.7,-0.06 4.14,12.6 z m 0,0 -4.25,-12.6 15.7,-0.06 4.14,12.6 z m -18.09,0 c -3.07,0.04 -11.6,0.04 -11.6,0.04 L 51.25,-8.19 63.3,-8.32 c 0,0 2.46,2.46 0.96,3.91 m -2.72,-7.83 c -3.04,0 -11.66,-0.13 -11.66,-0.13 l -1.62,-4.53 11.96,-0.04 c 0,0 3.25,3.38 1.32,4.7 M 18.8,-4.3 14.38,-16.87 30.36,-16.99 34.43,-4.53 Z M 0,0 h -13.48 l -2.61,-7.13 13.82,-0.12 c 0,0 1.59,0 2.27,1.7 0.68,1.7 1.24,3.63 1.24,3.63 C 1.24,-1.92 2.26,0 0,0 m 0,0 h -13.48 l -2.61,-7.13 13.82,-0.12 c 0,0 1.59,0 2.27,1.7 0.68,1.7 1.24,3.63 1.24,3.63 C 1.24,-1.92 2.26,0 0,0 m 18.8,-4.3 -4.42,-12.57 15.98,-0.12 4.07,12.46 z m 42.74,-7.94 c -3.04,0 -11.66,-0.13 -11.66,-0.13 l -1.62,-4.53 11.96,-0.04 c 0,0 3.25,3.38 1.32,4.7 m 2.72,7.83 c -3.07,0.04 -11.6,0.04 -11.6,0.04 L 51.25,-8.19 63.3,-8.32 c 0,0 2.46,2.46 0.96,3.91 m 18.09,0 -4.25,-12.6 15.7,-0.06 4.14,12.6 z m 0,0 -4.25,-12.6 15.7,-0.06 4.14,12.6 z m -18.09,0 c -3.07,0.04 -11.6,0.04 -11.6,0.04 L 51.25,-8.19 63.3,-8.32 c 0,0 2.46,2.46 0.96,3.91 m -2.72,-7.83 c -3.04,0 -11.66,-0.13 -11.66,-0.13 l -1.62,-4.53 11.96,-0.04 c 0,0 3.25,3.38 1.32,4.7 M 18.8,-4.3 14.38,-16.87 30.36,-16.99 34.43,-4.53 Z M 0,0 h -13.48 l -2.61,-7.13 13.82,-0.12 c 0,0 1.59,0 2.27,1.7 0.68,1.7 1.24,3.63 1.24,3.63 C 1.24,-1.92 2.26,0 0,0 m 0,0 h -13.48 l -2.61,-7.13 13.82,-0.12 c 0,0 1.59,0 2.27,1.7 0.68,1.7 1.24,3.63 1.24,3.63 C 1.24,-1.92 2.26,0 0,0 m 18.8,-4.3 -4.42,-12.57 15.98,-0.12 4.07,12.46 z m 42.74,-7.94 c -3.04,0 -11.66,-0.13 -11.66,-0.13 l -1.62,-4.53 11.96,-0.04 c 0,0 3.25,3.38 1.32,4.7 m 2.72,7.83 c -3.07,0.04 -11.6,0.04 -11.6,0.04 L 51.25,-8.19 63.3,-8.32 c 0,0 2.46,2.46 0.96,3.91 m 18.09,0 -4.25,-12.6 15.7,-0.06 4.14,12.6 z m 48.16,4.31 -10.7,0.11 -5.87,-16.96 c 0,0 6.1,-0.18 9.61,-0.06 3.5,0.11 5,0.69 7.76,2.81 2.76,2.13 3.8,5.24 4.37,9.44 0.58,4.2 -5.17,4.66 -5.17,4.66 m 0,0 -10.7,0.11 -5.87,-16.96 c 0,0 6.1,-0.18 9.61,-0.06 3.5,0.11 5,0.69 7.76,2.81 2.76,2.13 3.8,5.24 4.37,9.44 0.58,4.2 -5.17,4.66 -5.17,4.66 m -48.16,-4.31 -4.25,-12.6 15.7,-0.06 4.14,12.6 z m -18.09,0 c -3.07,0.04 -11.6,0.04 -11.6,0.04 L 51.25,-8.19 63.3,-8.32 c 0,0 2.46,2.46 0.96,3.91 m -2.72,-7.83 c -3.04,0 -11.66,-0.13 -11.66,-0.13 l -1.62,-4.53 11.96,-0.04 c 0,0 3.25,3.38 1.32,4.7 M 18.8,-4.3 14.38,-16.87 30.36,-16.99 34.43,-4.53 Z M 0,0 h -13.48 l -2.61,-7.13 13.82,-0.12 c 0,0 1.59,0 2.27,1.7 0.68,1.7 1.24,3.63 1.24,3.63 C 1.24,-1.92 2.26,0 0,0 m 0,0 h -13.48 l -2.61,-7.13 13.82,-0.12 c 0,0 1.59,0 2.27,1.7 0.68,1.7 1.24,3.63 1.24,3.63 C 1.24,-1.92 2.26,0 0,0 m 18.8,-4.3 -4.42,-12.57 15.98,-0.12 4.07,12.46 z m 42.74,-7.94 c -3.04,0 -11.66,-0.13 -11.66,-0.13 l -1.62,-4.53 11.96,-0.04 c 0,0 3.25,3.38 1.32,4.7 m 2.72,7.83 c -3.07,0.04 -11.6,0.04 -11.6,0.04 L 51.25,-8.19 63.3,-8.32 c 0,0 2.46,2.46 0.96,3.91 m 18.09,0 -4.25,-12.6 15.7,-0.06 4.14,12.6 z m 48.16,4.31 -10.7,0.11 -5.87,-16.96 c 0,0 6.1,-0.18 9.61,-0.06 3.5,0.11 5,0.69 7.76,2.81 2.76,2.13 3.8,5.24 4.37,9.44 0.58,4.2 -5.17,4.66 -5.17,4.66 m 0,0 -10.7,0.11 -5.87,-16.96 c 0,0 6.1,-0.18 9.61,-0.06 3.5,0.11 5,0.69 7.76,2.81 2.76,2.13 3.8,5.24 4.37,9.44 0.58,4.2 -5.17,4.66 -5.17,4.66 m -48.16,-4.31 -4.25,-12.6 15.7,-0.06 4.14,12.6 z m -18.09,0 c -3.07,0.04 -11.6,0.04 -11.6,0.04 L 51.25,-8.19 63.3,-8.32 c 0,0 2.46,2.46 0.96,3.91 m -2.72,-7.83 c -3.04,0 -11.66,-0.13 -11.66,-0.13 l -1.62,-4.53 11.96,-0.04 c 0,0 3.25,3.38 1.32,4.7 M 18.8,-4.3 14.38,-16.87 30.36,-16.99 34.43,-4.53 Z M 0,0 h -13.48 l -2.61,-7.13 13.82,-0.12 c 0,0 1.59,0 2.27,1.7 0.68,1.7 1.24,3.63 1.24,3.63 C 1.24,-1.92 2.26,0 0,0 m 0,0 h -13.48 l -2.61,-7.13 13.82,-0.12 c 0,0 1.59,0 2.27,1.7 0.68,1.7 1.24,3.63 1.24,3.63 C 1.24,-1.92 2.26,0 0,0 m 18.8,-4.3 -4.42,-12.57 15.98,-0.12 4.07,12.46 z m 42.74,-7.94 c -3.04,0 -11.66,-0.13 -11.66,-0.13 l -1.62,-4.53 11.96,-0.04 c 0,0 3.25,3.38 1.32,4.7 m 2.72,7.83 c -3.07,0.04 -11.6,0.04 -11.6,0.04 L 51.25,-8.19 63.3,-8.32 c 0,0 2.46,2.46 0.96,3.91 m 18.09,0 -4.25,-12.6 15.7,-0.06 4.14,12.6 z m 48.16,4.31 -10.7,0.11 -5.87,-16.96 c 0,0 6.1,-0.18 9.61,-0.06 3.5,0.11 5,0.69 7.76,2.81 2.76,2.13 3.8,5.24 4.37,9.44 0.58,4.2 -5.17,4.66 -5.17,4.66 m 0,0 -10.7,0.11 -5.87,-16.96 c 0,0 6.1,-0.18 9.61,-0.06 3.5,0.11 5,0.69 7.76,2.81 2.76,2.13 3.8,5.24 4.37,9.44 0.58,4.2 -5.17,4.66 -5.17,4.66 m -48.16,-4.31 -4.25,-12.6 15.7,-0.06 4.14,12.6 z m -18.09,0 c -3.07,0.04 -11.6,0.04 -11.6,0.04 L 51.25,-8.19 63.3,-8.32 c 0,0 2.46,2.46 0.96,3.91 m -2.72,-7.83 c -3.04,0 -11.66,-0.13 -11.66,-0.13 l -1.62,-4.53 11.96,-0.04 c 0,0 3.25,3.38 1.32,4.7 M 18.8,-4.3 14.38,-16.87 30.36,-16.99 34.43,-4.53 Z M 0,0 h -13.48 l -2.61,-7.13 13.82,-0.12 c 0,0 1.59,0 2.27,1.7 0.68,1.7 1.24,3.63 1.24,3.63 C 1.24,-1.92 2.26,0 0,0 m 0,0 h -13.48 l -2.61,-7.13 13.82,-0.12 c 0,0 1.59,0 2.27,1.7 0.68,1.7 1.24,3.63 1.24,3.63 C 1.24,-1.92 2.26,0 0,0 m 14.38,-16.87 15.98,-0.12 4.07,12.46 -15.63,0.23 z m 47.16,4.63 c -3.04,0 -11.66,-0.13 -11.66,-0.13 l -1.62,-4.53 11.96,-0.04 c 0,0 3.25,3.38 1.32,4.7 m -8.88,7.87 -1.41,-3.82 12.05,-0.13 c 0,0 2.46,2.46 0.96,3.91 -3.07,0.04 -11.6,0.04 -11.6,0.04 m 25.44,-12.64 15.7,-0.06 4.14,12.6 -15.59,0.06 z m 52.41,16.91 -10.7,0.11 -5.87,-16.96 c 0,0 6.1,-0.18 9.61,-0.06 3.5,0.11 5,0.69 7.76,2.81 2.76,2.13 3.8,5.24 4.37,9.44 0.58,4.2 -5.17,4.66 -5.17,4.66 m 136.53,-5.52 -5.12,-0.75 0.7,1.9 -12.2,0.17 -1.32,-3.91 c 0,0 9.2,-0.12 12.65,-0.12 3.45,0 3.11,-2.64 3.11,-2.64 0,0 -1.21,-3.8 -2.24,-6.68 -1.04,-2.87 -4.431,-3.39 -4.431,-3.39 0,0 -11.219,-0.12 -14.849,0 -3.62,0.12 -3.22,2.59 -3.22,2.59 l 1.04,3.74 5,0.4 -1.03,-2.53 13.059,-0.11 1.611,4.48 c 0,0 -8.571,0.12 -12.49,0.12 -3.91,0 -3.39,2.82 -3.39,2.82 0,0 0.29,1.55 1.61,5.17 1.32,3.63 5.01,4.15 5.01,4.15 h 11.38 c 5.47,0.34 5.7,-2.19 5.7,-2.19 z m -33.47,-15.36 -20.131,0.06 7.131,20.48 h 4.78 l -5.7,-16.51 15.31,-0.24 z m -28.47,0 -4.77,0.06 7.13,20.48 4.72,-0.12 z m -24.84,0 -4.321,20.59 4.951,-0.05 2.88,-15.65 13.29,15.76 4.89,-0.06 -17.78,-20.65 z M 171,-4.24 h -16.28 l -1.26,-3.91 9.32,-0.23 -1.15,-3.8 -9.67,-0.12 -1.66,-4.71 16.04,-0.12 -1.2,-3.91 -21.06,0.17 7.14,20.48 20.99,-0.11 z m -46.02,-16.51 c -14.78,-0.58 -17.48,-0.12 -17.48,-0.12 l 8.39,24.74 17.09,0.06 c 0,0 8.17,0.11 8.05,-8.06 0,0 -1.26,-16.05 -16.05,-16.62 m -22.26,15.82 c -1.56,-4.49 -4.26,-12.2 -4.26,-12.2 0,0 -0.92,-3.79 -5.92,-3.79 -5.01,0 -16.74,-0.06 -16.74,-0.06 0,0 -4.2,-0.29 -2.3,5 1.89,5.29 4.31,12.08 4.31,12.08 0,0 1.5,3.51 5.29,3.51 3.8,0 17.66,-0.11 17.66,-0.11 0,0 3.51,0.06 1.96,-4.43 M 69.66,-5.77 c -1.41,-4.55 -4.46,-4.65 -4.73,-4.65 3.25,-0.69 1.9,-3.52 0.66,-6.68 -1.25,-3.17 -5.67,-3.74 -5.67,-3.74 H 41.91 l 7.14,20.5 c 0,0 15.52,0.12 18.01,0.12 2.38,-0.23 4.08,-0.79 2.6,-5.55 m -30.69,0.22 c -1.59,-5.09 -4.31,-12.12 -4.31,-12.12 0,0 -0.79,-3.06 -5.89,-3.28 -5.1,-0.23 -16.65,0.11 -16.65,0.11 0,0 -3.85,-0.23 -2.38,4.3 1.47,4.54 4.76,12.92 4.76,12.92 0,0 1.36,3.4 4.87,3.28 h 17.56 c 0,0 3.62,-0.11 2.04,-5.21 M 6.79,-0.79 C 5.32,-5.43 4.3,-7.81 4.3,-7.81 c 0,0 -1.81,-2.95 -4.98,-3.17 -3.17,-0.23 -4.76,-0.12 -4.76,-0.12 l 7.59,-9.74 H -5.1 l -6.23,9.51 -6.12,0.12 -3.4,-9.74 -5.09,0.11 8.49,24.92 21.41,-0.11 c 0,0 4.31,-0.11 2.83,-4.76 m -44.78,-3.31 -16.1,-0.11 -1.44,-4 9.54,0.1 -1.13,-3.79 -9.64,-0.21 -1.85,-4.92 16.21,-0.2 -1.23,-3.59 -21.24,0.1 7.08,20.41 21.34,0.1 z M -70,-20.82 l -6.87,-0.11 -9.23,8.62 -2.98,-8.62 h -4.72 l 6.88,20.62 H -82 l -2.77,-8.1 14.06,8.1 5.54,-0.1 -17.03,-9.85 z m -32.52,-0.11 -4.72,0.11 7.19,20.72 4.72,-0.21 z m -5.02,21.14 c 0,0 -0.72,-2.06 -2.16,-6.57 -1.43,-4.51 -6.15,-4.72 -6.15,-4.72 l -16.11,-0.2 -3.69,-9.75 -5.13,0.1 8.82,25.44 c 0,0 16.52,0.1 21.24,-0.2 4.72,-0.31 3.18,-4.1 3.18,-4.1 m -32.21,8.18 -13,-36.81 h 426.67 l 13,36.81 z M 0,0 h -13.48 l -2.61,-7.13 13.82,-0.12 c 0,0 1.59,0 2.27,1.7 0.68,1.7 1.24,3.63 1.24,3.63 C 1.24,-1.92 2.26,0 0,0 m 18.8,-4.3 -4.42,-12.57 15.98,-0.12 4.07,12.46 z m 42.74,-7.94 c -3.04,0 -11.66,-0.13 -11.66,-0.13 l -1.62,-4.53 11.96,-0.04 c 0,0 3.25,3.38 1.32,4.7 m 2.72,7.83 c -3.07,0.04 -11.6,0.04 -11.6,0.04 L 51.25,-8.19 63.3,-8.32 c 0,0 2.46,2.46 0.96,3.91 m 18.09,0 -4.25,-12.6 15.7,-0.06 4.14,12.6 z m 48.16,4.31 -10.7,0.11 -5.87,-16.96 c 0,0 6.1,-0.18 9.61,-0.06 3.5,0.11 5,0.69 7.76,2.81 2.76,2.13 3.8,5.24 4.37,9.44 0.58,4.2 -5.17,4.66 -5.17,4.66 m 0,0 -10.7,0.11 -5.87,-16.96 c 0,0 6.1,-0.18 9.61,-0.06 3.5,0.11 5,0.69 7.76,2.81 2.76,2.13 3.8,5.24 4.37,9.44 0.58,4.2 -5.17,4.66 -5.17,4.66 m -48.16,-4.31 -4.25,-12.6 15.7,-0.06 4.14,12.6 z m -18.09,0 c -3.07,0.04 -11.6,0.04 -11.6,0.04 L 51.25,-8.19 63.3,-8.32 c 0,0 2.46,2.46 0.96,3.91 m -2.72,-7.83 c -3.04,0 -11.66,-0.13 -11.66,-0.13 l -1.62,-4.53 11.96,-0.04 c 0,0 3.25,3.38 1.32,4.7 M 18.8,-4.3 14.38,-16.87 30.36,-16.99 34.43,-4.53 Z M 0,0 h -13.48 l -2.61,-7.13 13.82,-0.12 c 0,0 1.59,0 2.27,1.7 0.68,1.7 1.24,3.63 1.24,3.63 C 1.24,-1.92 2.26,0 0,0 m 0,0 h -13.48 l -2.61,-7.13 13.82,-0.12 c 0,0 1.59,0 2.27,1.7 0.68,1.7 1.24,3.63 1.24,3.63 C 1.24,-1.92 2.26,0 0,0 m 18.8,-4.3 -4.42,-12.57 15.98,-0.12 4.07,12.46 z m 42.74,-7.94 c -3.04,0 -11.66,-0.13 -11.66,-0.13 l -1.62,-4.53 11.96,-0.04 c 0,0 3.25,3.38 1.32,4.7 m 2.72,7.83 c -3.07,0.04 -11.6,0.04 -11.6,0.04 L 51.25,-8.19 63.3,-8.32 c 0,0 2.46,2.46 0.96,3.91 m 18.09,0 -4.25,-12.6 15.7,-0.06 4.14,12.6 z m 48.16,4.31 -10.7,0.11 -5.87,-16.96 c 0,0 6.1,-0.18 9.61,-0.06 3.5,0.11 5,0.69 7.76,2.81 2.76,2.13 3.8,5.24 4.37,9.44 0.58,4.2 -5.17,4.66 -5.17,4.66 m 0,0 -10.7,0.11 -5.87,-16.96 c 0,0 6.1,-0.18 9.61,-0.06 3.5,0.11 5,0.69 7.76,2.81 2.76,2.13 3.8,5.24 4.37,9.44 0.58,4.2 -5.17,4.66 -5.17,4.66 m -48.16,-4.31 -4.25,-12.6 15.7,-0.06 4.14,12.6 z m -18.09,0 c -3.07,0.04 -11.6,0.04 -11.6,0.04 L 51.25,-8.19 63.3,-8.32 c 0,0 2.46,2.46 0.96,3.91 m -2.72,-7.83 c -3.04,0 -11.66,-0.13 -11.66,-0.13 l -1.62,-4.53 11.96,-0.04 c 0,0 3.25,3.38 1.32,4.7 M 18.8,-4.3 14.38,-16.87 30.36,-16.99 34.43,-4.53 Z M 0,0 h -13.48 l -2.61,-7.13 13.82,-0.12 c 0,0 1.59,0 2.27,1.7 0.68,1.7 1.24,3.63 1.24,3.63 C 1.24,-1.92 2.26,0 0,0 m 0,0 h -13.48 l -2.61,-7.13 13.82,-0.12 c 0,0 1.59,0 2.27,1.7 0.68,1.7 1.24,3.63 1.24,3.63 C 1.24,-1.92 2.26,0 0,0 m 18.8,-4.3 -4.42,-12.57 15.98,-0.12 4.07,12.46 z m 42.74,-7.94 c -3.04,0 -11.66,-0.13 -11.66,-0.13 l -1.62,-4.53 11.96,-0.04 c 0,0 3.25,3.38 1.32,4.7 m 2.72,7.83 c -3.07,0.04 -11.6,0.04 -11.6,0.04 L 51.25,-8.19 63.3,-8.32 c 0,0 2.46,2.46 0.96,3.91 m 18.09,0 -4.25,-12.6 15.7,-0.06 4.14,12.6 z m 48.16,4.31 -10.7,0.11 -5.87,-16.96 c 0,0 6.1,-0.18 9.61,-0.06 3.5,0.11 5,0.69 7.76,2.81 2.76,2.13 3.8,5.24 4.37,9.44 0.58,4.2 -5.17,4.66 -5.17,4.66 m 0,0 -10.7,0.11 -5.87,-16.96 c 0,0 6.1,-0.18 9.61,-0.06 3.5,0.11 5,0.69 7.76,2.81 2.76,2.13 3.8,5.24 4.37,9.44 0.58,4.2 -5.17,4.66 -5.17,4.66 m -48.16,-4.31 -4.25,-12.6 15.7,-0.06 4.14,12.6 z m -18.09,0 c -3.07,0.04 -11.6,0.04 -11.6,0.04 L 51.25,-8.19 63.3,-8.32 c 0,0 2.46,2.46 0.96,3.91 m -2.72,-7.83 c -3.04,0 -11.66,-0.13 -11.66,-0.13 l -1.62,-4.53 11.96,-0.04 c 0,0 3.25,3.38 1.32,4.7 M 18.8,-4.3 14.38,-16.87 30.36,-16.99 34.43,-4.53 Z M 0,0 h -13.48 l -2.61,-7.13 13.82,-0.12 c 0,0 1.59,0 2.27,1.7 0.68,1.7 1.24,3.63 1.24,3.63 C 1.24,-1.92 2.26,0 0,0 m 0,0 h -13.48 l -2.61,-7.13 13.82,-0.12 c 0,0 1.59,0 2.27,1.7 0.68,1.7 1.24,3.63 1.24,3.63 C 1.24,-1.92 2.26,0 0,0 m 18.8,-4.3 -4.42,-12.57 15.98,-0.12 4.07,12.46 z m 42.74,-7.94 c -3.04,0 -11.66,-0.13 -11.66,-0.13 l -1.62,-4.53 11.96,-0.04 c 0,0 3.25,3.38 1.32,4.7 m 2.72,7.83 c -3.07,0.04 -11.6,0.04 -11.6,0.04 L 51.25,-8.19 63.3,-8.32 c 0,0 2.46,2.46 0.96,3.91 m 18.09,0 -4.25,-12.6 15.7,-0.06 4.14,12.6 z m 0,0 -4.25,-12.6 15.7,-0.06 4.14,12.6 z m -18.09,0 c -3.07,0.04 -11.6,0.04 -11.6,0.04 L 51.25,-8.19 63.3,-8.32 c 0,0 2.46,2.46 0.96,3.91 m -2.72,-7.83 c -3.04,0 -11.66,-0.13 -11.66,-0.13 l -1.62,-4.53 11.96,-0.04 c 0,0 3.25,3.38 1.32,4.7 M 18.8,-4.3 14.38,-16.87 30.36,-16.99 34.43,-4.53 Z M 0,0 h -13.48 l -2.61,-7.13 13.82,-0.12 c 0,0 1.59,0 2.27,1.7 0.68,1.7 1.24,3.63 1.24,3.63 C 1.24,-1.92 2.26,0 0,0 m 0,0 h -13.48 l -2.61,-7.13 13.82,-0.12 c 0,0 1.59,0 2.27,1.7 0.68,1.7 1.24,3.63 1.24,3.63 C 1.24,-1.92 2.26,0 0,0 m 18.8,-4.3 -4.42,-12.57 15.98,-0.12 4.07,12.46 z m 42.74,-7.94 c -3.04,0 -11.66,-0.13 -11.66,-0.13 l -1.62,-4.53 11.96,-0.04 c 0,0 3.25,3.38 1.32,4.7 m 2.72,7.83 c -3.07,0.04 -11.6,0.04 -11.6,0.04 L 51.25,-8.19 63.3,-8.32 c 0,0 2.46,2.46 0.96,3.91 m 18.09,0 -4.25,-12.6 15.7,-0.06 4.14,12.6 z m 0,0 -4.25,-12.6 15.7,-0.06 4.14,12.6 z m -18.09,0 c -3.07,0.04 -11.6,0.04 -11.6,0.04 L 51.25,-8.19 63.3,-8.32 c 0,0 2.46,2.46 0.96,3.91 m -2.72,-7.83 c -3.04,0 -11.66,-0.13 -11.66,-0.13 l -1.62,-4.53 11.96,-0.04 c 0,0 3.25,3.38 1.32,4.7 M 18.8,-4.3 14.38,-16.87 30.36,-16.99 34.43,-4.53 Z M 0,0 h -13.48 l -2.61,-7.13 13.82,-0.12 c 0,0 1.59,0 2.27,1.7 0.68,1.7 1.24,3.63 1.24,3.63 C 1.24,-1.92 2.26,0 0,0 m 0,0 h -13.48 l -2.61,-7.13 13.82,-0.12 c 0,0 1.59,0 2.27,1.7 0.68,1.7 1.24,3.63 1.24,3.63 C 1.24,-1.92 2.26,0 0,0 m 18.8,-4.3 -4.42,-12.57 15.98,-0.12 4.07,12.46 z m 42.74,-7.94 c -3.04,0 -11.66,-0.13 -11.66,-0.13 l -1.62,-4.53 11.96,-0.04 c 0,0 3.25,3.38 1.32,4.7 m 2.72,7.83 c -3.07,0.04 -11.6,0.04 -11.6,0.04 L 51.25,-8.19 63.3,-8.32 c 0,0 2.46,2.46 0.96,3.91 m 18.09,0 -4.25,-12.6 15.7,-0.06 4.14,12.6 z m 0,0 -4.25,-12.6 15.7,-0.06 4.14,12.6 z m -18.09,0 c -3.07,0.04 -11.6,0.04 -11.6,0.04 L 51.25,-8.19 63.3,-8.32 c 0,0 2.46,2.46 0.96,3.91 m -2.72,-7.83 c -3.04,0 -11.66,-0.13 -11.66,-0.13 l -1.62,-4.53 11.96,-0.04 c 0,0 3.25,3.38 1.32,4.7 M 18.8,-4.3 14.38,-16.87 30.36,-16.99 34.43,-4.53 Z M 0,0 h -13.48 l -2.61,-7.13 13.82,-0.12 c 0,0 1.59,0 2.27,1.7 0.68,1.7 1.24,3.63 1.24,3.63 C 1.24,-1.92 2.26,0 0,0 m 0,0 h -13.48 l -2.61,-7.13 13.82,-0.12 c 0,0 1.59,0 2.27,1.7 0.68,1.7 1.24,3.63 1.24,3.63 C 1.24,-1.92 2.26,0 0,0 m 18.8,-4.3 -4.42,-12.57 15.98,-0.12 4.07,12.46 z m 42.74,-7.94 c -3.04,0 -11.66,-0.13 -11.66,-0.13 l -1.62,-4.53 11.96,-0.04 c 0,0 3.25,3.38 1.32,4.7 m 2.72,7.83 c -3.07,0.04 -11.6,0.04 -11.6,0.04 L 51.25,-8.19 63.3,-8.32 c 0,0 2.46,2.46 0.96,3.91 m 18.09,0 -4.25,-12.6 15.7,-0.06 4.14,12.6 z m 0,0 -4.25,-12.6 15.7,-0.06 4.14,12.6 z m -18.09,0 c -3.07,0.04 -11.6,0.04 -11.6,0.04 L 51.25,-8.19 63.3,-8.32 c 0,0 2.46,2.46 0.96,3.91 m -2.72,-7.83 c -3.04,0 -11.66,-0.13 -11.66,-0.13 l -1.62,-4.53 11.96,-0.04 c 0,0 3.25,3.38 1.32,4.7 M 18.8,-4.3 14.38,-16.87 30.36,-16.99 34.43,-4.53 Z M 0,0 h -13.48 l -2.61,-7.13 13.82,-0.12 c 0,0 1.59,0 2.27,1.7 0.68,1.7 1.24,3.63 1.24,3.63 C 1.24,-1.92 2.26,0 0,0 m 0,0 h -13.48 l -2.61,-7.13 13.82,-0.12 c 0,0 1.59,0 2.27,1.7 0.68,1.7 1.24,3.63 1.24,3.63 C 1.24,-1.92 2.26,0 0,0 m 18.8,-4.3 -4.42,-12.57 15.98,-0.12 4.07,12.46 z m 42.74,-7.94 c -3.04,0 -11.66,-0.13 -11.66,-0.13 l -1.62,-4.53 11.96,-0.04 c 0,0 3.25,3.38 1.32,4.7 m 2.72,7.83 c -3.07,0.04 -11.6,0.04 -11.6,0.04 L 51.25,-8.19 63.3,-8.32 c 0,0 2.46,2.46 0.96,3.91 m 18.09,0 -4.25,-12.6 15.7,-0.06 4.14,12.6 z m 0,0 -4.25,-12.6 15.7,-0.06 4.14,12.6 z m -18.09,0 c -3.07,0.04 -11.6,0.04 -11.6,0.04 L 51.25,-8.19 63.3,-8.32 c 0,0 2.46,2.46 0.96,3.91 m -2.72,-7.83 c -3.04,0 -11.66,-0.13 -11.66,-0.13 l -1.62,-4.53 11.96,-0.04 c 0,0 3.25,3.38 1.32,4.7 M 18.8,-4.3 14.38,-16.87 30.36,-16.99 34.43,-4.53 Z M 0,0 h -13.48 l -2.61,-7.13 13.82,-0.12 c 0,0 1.59,0 2.27,1.7 0.68,1.7 1.24,3.63 1.24,3.63 C 1.24,-1.92 2.26,0 0,0 m 0,0 h -13.48 l -2.61,-7.13 13.82,-0.12 c 0,0 1.59,0 2.27,1.7 0.68,1.7 1.24,3.63 1.24,3.63 C 1.24,-1.92 2.26,0 0,0 m 18.8,-4.3 -4.42,-12.57 15.98,-0.12 4.07,12.46 z m 42.74,-7.94 c -3.04,0 -11.66,-0.13 -11.66,-0.13 l -1.62,-4.53 11.96,-0.04 c 0,0 3.25,3.38 1.32,4.7 m 2.72,7.83 c -3.07,0.04 -11.6,0.04 -11.6,0.04 L 51.25,-8.19 63.3,-8.32 c 0,0 2.46,2.46 0.96,3.91 m 18.09,0 -4.25,-12.6 15.7,-0.06 4.14,12.6 z m 0,0 -4.25,-12.6 15.7,-0.06 4.14,12.6 z m -18.09,0 c -3.07,0.04 -11.6,0.04 -11.6,0.04 L 51.25,-8.19 63.3,-8.32 c 0,0 2.46,2.46 0.96,3.91 m -2.72,-7.83 c -3.04,0 -11.66,-0.13 -11.66,-0.13 l -1.62,-4.53 11.96,-0.04 c 0,0 3.25,3.38 1.32,4.7 M 18.8,-4.3 14.38,-16.87 30.36,-16.99 34.43,-4.53 Z M 0,0 h -13.48 l -2.61,-7.13 13.82,-0.12 c 0,0 1.59,0 2.27,1.7 0.68,1.7 1.24,3.63 1.24,3.63 C 1.24,-1.92 2.26,0 0,0 m 0,0 h -13.48 l -2.61,-7.13 13.82,-0.12 c 0,0 1.59,0 2.27,1.7 0.68,1.7 1.24,3.63 1.24,3.63 C 1.24,-1.92 2.26,0 0,0 m 18.8,-4.3 -4.42,-12.57 15.98,-0.12 4.07,12.46 z m 42.74,-7.94 c -3.04,0 -11.66,-0.13 -11.66,-0.13 l -1.62,-4.53 11.96,-0.04 c 0,0 3.25,3.38 1.32,4.7 m 2.72,7.83 c -3.07,0.04 -11.6,0.04 -11.6,0.04 L 51.25,-8.19 63.3,-8.32 c 0,0 2.46,2.46 0.96,3.91 m 18.09,0 -4.25,-12.6 15.7,-0.06 4.14,12.6 z m 0,0 -4.25,-12.6 15.7,-0.06 4.14,12.6 z m -18.09,0 c -3.07,0.04 -11.6,0.04 -11.6,0.04 L 51.25,-8.19 63.3,-8.32 c 0,0 2.46,2.46 0.96,3.91 m -2.72,-7.83 c -3.04,0 -11.66,-0.13 -11.66,-0.13 l -1.62,-4.53 11.96,-0.04 c 0,0 3.25,3.38 1.32,4.7 M 18.8,-4.3 14.38,-16.87 30.36,-16.99 34.43,-4.53 Z M 0,0 h -13.48 l -2.61,-7.13 13.82,-0.12 c 0,0 1.59,0 2.27,1.7 0.68,1.7 1.24,3.63 1.24,3.63 C 1.24,-1.92 2.26,0 0,0 m 0,0 h -13.48 l -2.61,-7.13 13.82,-0.12 c 0,0 1.59,0 2.27,1.7 0.68,1.7 1.24,3.63 1.24,3.63 C 1.24,-1.92 2.26,0 0,0 m 18.8,-4.3 -4.42,-12.57 15.98,-0.12 4.07,12.46 z m 0,0 -4.42,-12.57 15.98,-0.12 4.07,12.46 z M 0,0 h -13.48 l -2.61,-7.13 13.82,-0.12 c 0,0 1.59,0 2.27,1.7 0.68,1.7 1.24,3.63 1.24,3.63 C 1.24,-1.92 2.26,0 0,0" /></g><g
           transform="translate(46.1978,172.9624)"
           id="g30"><path
             id="path32"
             style="fill:#ffffff;fill-opacity:1;fill-rule:nonzero;stroke:none"
             d="m 0,0 -6.25,-15.721 h 23.046 l -29.79,-75.187 27.055,0.387 38.564,96.384 z" /></g><g
           transform="translate(286.9946,172.5718)"
           id="g34"><path
             id="path36"
             style="fill:#ffffff;fill-opacity:1;fill-rule:nonzero;stroke:none"
             d="M 0,0 -6.248,-15.722 H 16.796 L -13.087,-90.517 14.062,-90.521 52.434,6.253 Z" /></g><g
           transform="translate(149.6206,159.1826)"
           id="g38"><path
             id="path40"
             style="fill:#ffffff;fill-opacity:1;fill-rule:nonzero;stroke:none"
             d="m 0,0 -22.557,-57.277 73.217,0.361 22.459,56.442 z m 7.89,18.958 h 76.264 c 0,0 13.945,-0.087 16.697,-6.737 2.752,-6.65 -2.901,-18.053 -2.901,-18.053 l -22.292,-54.99 c 0,0 -2.002,-4.697 -7.715,-9.666 -5.711,-4.969 -9.189,-6.509 -41.88,-6.738 -31.768,-0.223 -59.576,0.098 -59.576,0.098 0,0 -18.616,-0.81 -17.284,10.645 1.465,12.605 16.587,48.456 20.597,57.119 6.576,14.201 6.322,17.653 15.24,23.342 8.881,4.885 22.85,4.98 22.85,4.98" /></g><g
           transform="translate(458.4058,155.0479)"
           id="g42"><path
             id="path44"
             style="fill:#ffffff;fill-opacity:1;fill-rule:nonzero;stroke:none"
             d="m 0,0 -5.273,-12.05 c 0,0 -1.182,-2.188 -5.204,-2.295 h -55.494 c 0,0 -7.06,-0.254 -5.634,4.111 l 2.597,7.286 0.166,0.399 c 0,0 1.621,4.502 4.422,5.966 0,0 0.528,1.074 6.181,1.074 h 54.098 c 0,0 5.673,0.098 4.141,-4.491 m -15.721,-37.682 -5.274,-12.061 c 0,0 -1.18,-2.188 -5.203,-2.295 h -55.495 c 0,0 -7.061,-0.244 -5.633,4.111 l 2.597,7.285 0.166,0.4 c 0,0 1.622,4.503 4.422,5.967 0,0 0.529,1.074 6.182,1.074 h 54.098 c 0,0 5.673,0.097 4.14,-4.481 m 25.76,60.482 -72.28,-0.048 c -7.947,0 -16.679,-3.271 -16.679,-3.271 -6.708,-2.013 -10.761,-9.394 -12.663,-13.631 -1.456,-3.244 -5.167,-13.271 -5.167,-13.271 -3.516,-12.666 6.738,-13.896 6.738,-13.896 2.003,-1.299 0.059,-2.266 0.059,-2.266 -26.512,-4.052 -29.023,-38.618 -29.023,-38.618 -0.106,-9.6 16.953,-10.029 16.953,-10.029 h 76.41 c 8.788,0.028 16.717,2.821 16.717,2.821 9.628,2.85 14.385,12.226 14.385,12.226 l 7.978,19.256 c 2.218,8.701 -3.495,12.001 -3.495,12.001 -1.464,1.269 0.858,2.343 0.858,2.343 l 3.944,2.862 c 6.69,5.028 13.977,27.219 13.977,27.219 0,0 7.292,16.302 -18.712,16.302" /></g></g></g></g></svg>